<svg aria-hidden="true" style="position: absolute; width: 0; height: 0; overflow: hidden;" version="1.1" xmlns="http://www.w3.org/2000/svg" xmlns:xlink="http://www.w3.org/1999/xlink">
<defs>
<symbol id="icon-check" viewBox="0 0 33 32">
<path fill="#9e78cf" style="fill: var(--color1, #9e78cf)" d="M28.778 9.707l-16 16c-0.093 0.093-0.203 0.167-0.325 0.217s-0.252 0.076-0.383 0.076c-0.131 0-0.262-0.026-0.383-0.076s-0.232-0.124-0.325-0.217l-7-7c-0.188-0.188-0.293-0.442-0.293-0.707s0.105-0.52 0.293-0.707c0.188-0.188 0.442-0.293 0.707-0.293s0.52 0.105 0.707 0.293l6.293 6.294 15.292-15.294c0.188-0.188 0.442-0.293 0.707-0.293s0.52 0.105 0.707 0.293 0.293 0.442 0.293 0.707c0 0.265-0.105 0.52-0.293 0.707z"></path>
</symbol>
<symbol id="icon-trash" viewBox="0 0 33 32">
<path fill="#9e78cf" style="fill: var(--color1, #9e78cf)" d="M27.071 6h-22c-0.265 0-0.52 0.105-0.707 0.293s-0.293 0.442-0.293 0.707c0 0.265 0.105 0.52 0.293 0.707s0.442 0.293 0.707 0.293h1v18c0 0.53 0.211 1.039 0.586 1.414s0.884 0.586 1.414 0.586h16c0.53 0 1.039-0.211 1.414-0.586s0.586-0.884 0.586-1.414v-18h1c0.265 0 0.52-0.105 0.707-0.293s0.293-0.442 0.293-0.707-0.105-0.52-0.293-0.707c-0.188-0.188-0.442-0.293-0.707-0.293zM24.071 26h-16v-18h16v18zM10.071 3c0-0.265 0.105-0.52 0.293-0.707s0.442-0.293 0.707-0.293h10c0.265 0 0.52 0.105 0.707 0.293s0.293 0.442 0.293 0.707-0.105 0.52-0.293 0.707c-0.188 0.188-0.442 0.293-0.707 0.293h-10c-0.265 0-0.52-0.105-0.707-0.293s-0.293-0.442-0.293-0.707z"></path>
</symbol>
<symbol id="icon-plus" viewBox="0 0 32 32">
<path fill="#fff" style="fill: var(--color2, #fff)" d="M30.667 16c0 0.324-0.129 0.635-0.358 0.864s-0.54 0.358-0.864 0.358h-12.222v12.222c0 0.324-0.129 0.635-0.358 0.864s-0.54 0.358-0.864 0.358-0.635-0.129-0.864-0.358c-0.229-0.229-0.358-0.54-0.358-0.864v-12.222h-12.222c-0.324 0-0.635-0.129-0.864-0.358s-0.358-0.54-0.358-0.864c0-0.324 0.129-0.635 0.358-0.864s0.54-0.358 0.864-0.358h12.222v-12.222c0-0.324 0.129-0.635 0.358-0.864s0.54-0.358 0.864-0.358c0.324 0 0.635 0.129 0.864 0.358s0.358 0.54 0.358 0.864v12.222h12.222c0.324 0 0.635 0.129 0.864 0.358s0.358 0.54 0.358 0.864z"></path>
</symbol>
</defs>
</svg>
